# xmcd
#
# Track frame offsets: 
#        31218
#        60678
#        80711
#        135906
#        176393
#        221226
#        251638
#        290308
#        312533
#
# Disc length: 4599 seconds
#
# Revision: 2
# Processed by: cddbd v1.5.2PL0 Copyright (c) Steve Scherf et al.
# Submitted via: ExactAudioCopy v0.95b4
#
DISCID=8d105709
DTITLE=Various Artist - Flux Trax [CD1 of 2)
DYEAR=1900
DGENRE=
TTITLE0=Rhythim is Rhythim/It Is What It Is
TTITLE1=A Guy Called Gerald/Voodoo Ray
TTITLE2=Phuture/Acid Trax
TTITLE3=Hardfloor/Acperience
TTITLE4=Underworld/Rez
TTITLE5=Empirion/Narcotic Influence 1
TTITLE6=Slam/Positive Education
TTITLE7=Stakker/Humanoid
TTITLE8=Aphex Twin/Digeridoo
EXTD=
EXTT0=
EXTT1=
EXTT2=
EXTT3=
EXTT4=
EXTT5=
EXTT6=
EXTT7=
EXTT8=
PLAYORDER=
